/* XPM */
static char *_e9aacc9404b4bedf0772050f7ee93ecuTLacnMUbEFRSyE9[] = {
/* columns rows colors chars-per-pixel */
"64 64 5 1 ",
"  c None",
". c white",
"X c #ECECEC",
"o c gray97",
"O c gray77",
/* pixels */
"                                                                ",
"                                                                ",
"                                                                ",
"                                                                ",
"                                                                ",
"                                                                ",
"                                                                ",
"                                                                ",
"                                                                ",
"                                                                ",
"                                                                ",
"                                                                ",
"                                                                ",
"                                                                ",
"................................................................",
"................................................................",
"................................................................",
"................................................................",
"................................................................",
"................................................................",
"................................................................",
"................................................................",
"................................................................",
"................................................................",
"................................................................",
"................................................................",
"....................XXXXXXXXXXXXXXXXXXX.........................",
"...................oXoooooooooooooooooXo........................",
"...................oX......XXXo.......Xo........................",
"...................oX.....oXOOX.......Xo........................",
"....................Xo.oo.ooXoooo.oo.oXo........................",
"...................oXXXXXXXXXXXXXXXXXXXo........................",
"....................XXXXXXXXXXXXXXXXXXXX........................",
"...................oX.o...oXoo..o..o..oX........................",
"....................X.....oOOO........oX........................",
"...................oXXXXXXXXXXXXXXXXXXXX........................",
"....................ooooooooooooooooooo.........................",
"................................................................",
"................................................................",
"................................................................",
"................................................................",
"................................................................",
"................................................................",
"................................................................",
"................................................................",
"................................................................",
"................................................................",
"................................................................",
"................................................................",
"................................................................",
"                                                                ",
"                                                                ",
"                                                                ",
"                                                                ",
"                                                                ",
"                                                                ",
"                                                                ",
"                                                                ",
"                                                                ",
"                                                                ",
"                                                                ",
"                                                                ",
"                                                                ",
"                                                                "
};
